<?xml version="1.0" encoding="utf-8"?>
<!-- Generator: Adobe Illustrator 27.5.0, SVG Export Plug-In . SVG Version: 6.00 Build 0)  -->
<svg version="1.1" xmlns="http://www.w3.org/2000/svg" xmlns:xlink="http://www.w3.org/1999/xlink" x="0px" y="0px"
	 viewBox="0 0 500 500" style="enable-background:new 0 0 500 500;" xml:space="preserve">
<g id="BACKGROUND">
	<rect style="fill:#FFFFFF;" width="500" height="500"/>
	<path style="fill:#D3E7EF;" d="M266.398,467.361c-171.281,0-227.373,2.036-233.383-94.661
		c-6.01-96.696,30.049-142.5,14.023-214.767C31.012,85.665,94.115-4.924,215.314,38.844
		c121.199,43.768,140.827-23.271,206.339,22.393c65.512,45.664,15.025,192.375,42.069,300.268
		C483.191,439.176,438.681,467.361,266.398,467.361z"/>
	<g>
		<path style="fill:#5F7FA8;" d="M463.543,415.78c2.186-5.219,3.517-10.894,4.088-17.028H36.378
			c1.327,6.223,3.016,11.882,5.096,17.028H463.543z"/>
		<path style="fill:#9ABFE1;" d="M41.474,415.78c21.398,52.938,84.374,51.581,224.924,51.581
			c123.818,0,181.639-14.558,197.145-51.581H41.474z"/>
	</g>
</g>
<g id="OBJECTS">
	<g>
		<rect x="202.794" y="122.799" style="fill:#9ABFE1;" width="141.232" height="292.98"/>
		<rect x="210.443" y="131.373" style="fill:#77A3CC;" width="125.933" height="284.406"/>
		<rect x="214.467" y="135.629" style="fill:#9ABFE1;" width="117.885" height="275.894"/>
		<rect x="225.998" y="146.921" style="fill:#77A3CC;" width="94.822" height="82.363"/>
		<rect x="241.035" y="246.099" style="fill:#77A3CC;" width="64.749" height="136.576"/>
		<rect x="244.279" y="249.376" style="fill:#9ABFE1;" width="58.261" height="130.023"/>
		<rect x="229.1" y="149.527" style="fill:#FFFFFF;" width="88.619" height="77.151"/>
		<path style="fill:#D3E7EF;" d="M293.675,203.25h21.231c0.335-0.589,0.321-1.717-0.208-2.141c-0.529-0.424-1.366-0.398-1.868,0.058
			c0.185-0.949-0.396-1.99-1.301-2.331c-0.905-0.341-2.028,0.058-2.515,0.894c0.579-1.468-0.269-3.106-1.27-4.326
			c-0.893-1.088-2.131-2.129-3.53-1.974c-1.253,0.139-2.201,1.204-2.814,2.306c-0.643,1.155-1.063,2.433-1.231,3.744
			c-0.415-1.102-1.786-1.734-2.894-1.334c-1.107,0.4-1.758,1.763-1.372,2.876c-0.51-0.569-1.467-0.661-2.076-0.2
			C293.217,201.284,293.265,202.605,293.675,203.25z"/>
		<path style="fill:#97C6A7;" d="M317.719,226.678V179.64c-0.636-0.063-1.292,0.066-1.835,0.406
			c-1.035,0.65-1.574,2.001-1.269,3.185c-2.437-0.927-5.061,1.648-5.188,4.253c-0.127,2.605,1.391,4.977,2.922,7.089
			c-2.341-0.73-5.057,1.532-4.761,3.966c-1.141-0.74-2.789-0.064-3.472,1.112c-0.682,1.176-0.608,2.646-0.296,3.969
			c-2.235-2.044-5.774-2.508-8.46-1.109c-4.233,2.206-5.32,7.66-5.93,12.394c-0.993-1.007-2.053-2.055-3.418-2.423
			c-1.365-0.368-3.103,0.244-3.448,1.615c-0.493-0.96-1.783-1.415-2.769-0.976c-0.986,0.438-1.512,1.701-1.13,2.709
			c-2.14-1.596-5.782,0.554-5.419,3.199c-2.851-3.394-6.908-6.184-11.338-6.025c-4.429,0.159-8.759,4.298-7.858,8.638
			c-0.482-0.99-1.673-1.579-2.752-1.362c-1.08,0.217-1.949,1.221-2.01,2.321c-2.493-0.323-5.125-0.233-7.383,0.872
			c-1.406,0.687-2.631,1.833-3.352,3.205H317.719z"/>
		<path style="fill:#639795;" d="M317.719,226.678v-28.785c-0.39-0.039-0.791,0.04-1.123,0.248
			c-0.634,0.398-0.963,1.224-0.777,1.949c-1.491-0.568-3.097,1.009-3.174,2.603c-0.077,1.594,0.851,3.046,1.788,4.338
			c-1.432-0.447-3.094,0.937-2.914,2.427c-0.698-0.453-1.707-0.039-2.124,0.68c-0.418,0.72-0.372,1.619-0.181,2.429
			c-1.368-1.251-3.533-1.535-5.177-0.678c-2.591,1.35-3.256,4.687-3.629,7.585c-0.607-0.616-1.256-1.257-2.091-1.483
			c-0.835-0.225-1.898,0.149-2.11,0.988c-0.301-0.587-1.091-0.866-1.694-0.598c-0.603,0.268-0.925,1.041-0.692,1.658
			c-1.31-0.977-3.538,0.339-3.316,1.958c-1.745-2.077-4.227-3.784-6.938-3.687c-2.711,0.097-5.36,2.63-4.809,5.286
			c-0.295-0.606-1.024-0.967-1.684-0.833c-0.661,0.133-1.193,0.747-1.23,1.421c-1.526-0.198-3.136-0.142-4.518,0.534
			c-0.86,0.421-1.61,1.121-2.051,1.961H317.719z"/>
		<g>
			<rect x="228.181" y="186.525" style="fill:#77A3CC;" width="90.458" height="3.155"/>
			
				<rect x="216.839" y="186.525" transform="matrix(-1.836970e-16 1 -1 -1.836970e-16 445.2285 -69.023)" style="fill:#77A3CC;" width="80.574" height="3.155"/>
			
				<rect x="249.406" y="186.525" transform="matrix(-1.836970e-16 1 -1 -1.836970e-16 477.796 -101.5905)" style="fill:#77A3CC;" width="80.574" height="3.155"/>
		</g>
		<path style="fill:#D3E7EF;" d="M232.076,207.438h19.217c0.303-0.533,0.291-1.554-0.188-1.938c-0.479-0.384-1.237-0.36-1.691,0.052
			c0.167-0.859-0.358-1.801-1.178-2.109c-0.819-0.308-1.835,0.053-2.276,0.809c0.524-1.329-0.243-2.811-1.15-3.916
			c-0.808-0.985-1.929-1.927-3.195-1.787c-1.134,0.126-1.992,1.09-2.547,2.087c-0.582,1.046-0.962,2.202-1.115,3.389
			c-0.376-0.997-1.617-1.57-2.619-1.207c-1.003,0.362-1.591,1.596-1.242,2.603c-0.461-0.515-1.328-0.598-1.88-0.181
			C231.661,205.658,231.705,206.854,232.076,207.438z"/>
		<path style="fill:#D3E7EF;" d="M262.406,172.13h21.295c0.336-0.591,0.322-1.723-0.209-2.148c-0.531-0.425-1.37-0.399-1.874,0.058
			c0.185-0.952-0.397-1.996-1.305-2.337c-0.908-0.342-2.034,0.059-2.522,0.896c0.581-1.473-0.27-3.115-1.274-4.339
			c-0.895-1.091-2.138-2.135-3.541-1.98c-1.257,0.139-2.207,1.208-2.822,2.313c-0.645,1.158-1.066,2.441-1.235,3.756
			c-0.416-1.105-1.792-1.739-2.903-1.338c-1.111,0.402-1.763,1.768-1.377,2.885c-0.511-0.57-1.472-0.663-2.083-0.2
			C261.946,170.158,261.995,171.483,262.406,172.13z"/>
		<rect x="214.467" y="394.244" style="fill:#77A3CC;" width="117.885" height="3.005"/>
	</g>
	<g>
		<rect x="103.857" y="90.558" style="fill:#77A3CC;" width="51.26" height="51.26"/>
		<rect x="110.506" y="97.207" style="fill:#D3E7EF;" width="37.961" height="37.961"/>
		<rect x="117.132" y="103.832" style="fill:#FFFFFF;" width="24.71" height="24.71"/>
		<path style="fill:#D3E7EF;" d="M138.64,123.014c-0.51-0.89-1.661-0.991-2.534-0.652c-0.899,0.348-1.529,1.135-2.378,1.573
			c-0.514,0.265-1.184,0.437-1.709,0.095c-0.742-0.484-0.295-1.428-0.001-2.063c0.893-1.933,2.544-3.368,4.008-4.861
			c1.219-1.243,3.249-3.283,2.195-5.199c-0.959-1.743-3.239-1.217-4.714-0.592c-1.931,0.818-3.612,2.101-5.214,3.433
			c-0.851,0.708-1.694,1.432-2.594,2.079c-0.432,0.311-0.877,0.605-1.335,0.877c-0.521,0.309-1.609,0.995-1.571-0.093
			c0.087-2.474,2.226-4.493,3.65-6.302c0.7-0.889,1.686-2.028,1.794-3.204c0.086-0.935-0.595-1.553-1.488-1.629
			c-2.274-0.195-4.775,1.389-6.172,3.054c-0.427,0.509,0.26,1.23,0.741,0.741c0.735-0.746,1.57-1.379,2.518-1.833
			c0.446-0.214,0.911-0.383,1.387-0.513c0.303-0.082,1.277-0.428,1.56-0.189c0.775,0.652-3.125,4.882-3.58,5.524
			c-0.967,1.365-2.211,3.633-1.461,5.354c0.797,1.83,3.056,0.214,4.111-0.468c1.646-1.064,3.162-2.318,4.728-3.493
			c1.443-1.084,3.282-2.44,5.145-2.583c1.36-0.105,1.639,0.907,1.059,1.968c-0.472,0.864-1.256,1.568-1.939,2.264
			c-1.314,1.34-2.715,2.653-3.665,4.292c-0.941,1.625-1.571,4.083,0.74,4.84c0.935,0.307,1.921,0.043,2.755-0.426
			c0.452-0.254,0.828-0.598,1.24-0.908c0.228-0.172,0.518-0.42,0.806-0.489c0.342-0.081,1.061,0.007,0.789,0.546
			c-0.211,0.421,0.253,1.037,0.71,0.71C138.844,124.42,139.035,123.703,138.64,123.014z"/>
		<path style="fill:#D3E7EF;" d="M133.998,107.428c-0.098-0.35-0.275-0.654-0.532-0.912c-0.139-0.108-0.279-0.215-0.418-0.323
			c-0.322-0.187-0.67-0.281-1.043-0.282c-0.285-0.011-0.55,0.049-0.797,0.178c-0.256,0.083-0.478,0.226-0.665,0.427
			c-0.202,0.187-0.344,0.409-0.427,0.665c-0.129,0.246-0.189,0.512-0.178,0.796l0.074,0.549c0.098,0.35,0.275,0.654,0.531,0.912
			c0.14,0.108,0.279,0.215,0.418,0.323c0.322,0.187,0.67,0.281,1.043,0.282c0.285,0.011,0.55-0.049,0.796-0.178
			c0.256-0.083,0.478-0.226,0.665-0.427c0.202-0.187,0.344-0.409,0.428-0.665c0.129-0.246,0.189-0.512,0.178-0.797
			C134.047,107.795,134.023,107.612,133.998,107.428z"/>
		<path style="fill:#D3E7EF;" d="M127.093,123.182c-0.074-0.264-0.208-0.494-0.401-0.689c-0.105-0.081-0.211-0.163-0.316-0.244
			c-0.243-0.141-0.506-0.212-0.788-0.213c-0.215-0.008-0.415,0.037-0.601,0.134c-0.193,0.063-0.361,0.171-0.502,0.323
			c-0.152,0.141-0.26,0.309-0.323,0.502c-0.098,0.186-0.143,0.386-0.134,0.601l0.056,0.415c0.074,0.264,0.208,0.494,0.401,0.689
			c0.105,0.081,0.211,0.163,0.316,0.244c0.243,0.141,0.506,0.212,0.788,0.213c0.215,0.008,0.415-0.037,0.601-0.134
			c0.193-0.063,0.361-0.171,0.502-0.323c0.152-0.141,0.26-0.309,0.323-0.502c0.098-0.186,0.143-0.386,0.135-0.601
			C127.131,123.459,127.112,123.32,127.093,123.182z"/>
	</g>
	<g>
		<rect x="370.629" y="98.819" style="fill:#77A3CC;" width="51.26" height="80.072"/>
		<rect x="377.278" y="105.875" style="fill:#D3E7EF;" width="37.961" height="65.96"/>
		<rect x="383.903" y="111.334" style="fill:#FFFFFF;" width="24.71" height="54.886"/>
		<path style="fill:#D3E7EF;" d="M402.371,122.799c0,3.457-2.803,6.26-6.26,6.26c-3.457,0-6.26-2.803-6.26-6.26
			c0-3.457,2.803-6.26,6.26-6.26C399.568,116.539,402.371,119.342,402.371,122.799z"/>
		<path style="fill:#D3E7EF;" d="M401.766,161.531c-2.45,0.074-4.693,0.634-7.155,0.068c-0.714-0.164-1.946-0.413-2.301-1.165
			c-0.449-0.951,0.756-1.735,1.436-2.183c2.035-1.339,4.184-2.522,6.266-3.788c1.67-1.015,2.87-2.32,2.346-4.39
			c-0.447-1.767-1.939-2.842-3.679-3.15c-1.498-0.266-5.167,0.989-5.405-1.236c-0.231-2.162,2.618-3.288,4.075-4.223
			c1.385-0.889,2.616-2.078,2.736-3.807c0.118-1.693-0.839-3.221-2.611-3.38c-0.817-0.073-2.807,0.66-2.967-0.497
			c-0.156-1.133,1.851-2.019,2.596-2.563c0.267-0.195,0.174-0.593-0.168-0.619c-1.914-0.144-4,0.726-4.248,2.866
			c-0.228,1.972,1.35,3.022,3.164,2.853c1.029-0.096,2.38-0.448,2.379,1.032c-0.001,1.343-1.395,2.094-2.415,2.654
			c-1.791,0.985-3.768,2.019-4.454,4.104c-0.593,1.802,0.047,3.981,1.909,4.711c1.947,0.764,5.437-1.051,6.75,1.1
			c0.867,1.42-0.988,2.146-1.951,2.713c-1.296,0.763-2.592,1.527-3.889,2.29c-1.769,1.042-4.013,2.184-4.485,4.389
			c-0.527,2.464,1.736,3.997,3.782,4.616c2.719,0.822,6.282,1.163,8.913-0.087C403.517,163.305,402.948,161.495,401.766,161.531z"/>
	</g>
	<g>
		<path style="fill:#77A3CC;" d="M213.797,433.128c0,5.478-22.62,9.918-50.524,9.918c-27.903,0-50.524-4.44-50.524-9.918
			c0-5.477,22.62-9.918,50.524-9.918C191.177,423.21,213.797,427.651,213.797,433.128z"/>
		<path style="fill:#414668;" d="M117.58,424.867c-1.912,0.778-3.688,8.946-0.546,10.242c3.142,1.296,18.167,1.037,22.265,0.908
			c4.098-0.13,4.644-4.019,1.912-5.964c-2.732-1.945-13.386-3.371-13.386-3.371L117.58,424.867z"/>
		<path style="fill:#E89C77;" d="M116.544,418.946c0.116,3.599-0.232,5.689,0.813,7.431c1.045,1.741,10.913,4.063,12.539,1.045
			c1.625-3.019,2.554-9.636,2.554-9.636L116.544,418.946z"/>
		<path style="fill:#414668;" d="M180.439,425.63c-1.714,1.151-1.792,9.509,1.548,10.139c3.34,0.63,17.998-2.68,21.984-3.64
			c3.986-0.96,3.73-4.88,0.659-6.228c-3.07-1.349-13.792-0.578-13.792-0.578L180.439,425.63z"/>
		<path style="fill:#E89C77;" d="M178.22,420.043c0.846,3.5,0.93,5.617,2.307,7.11c1.377,1.493,11.512,1.759,12.489-1.527
			c0.978-3.286-0.542-9.931-0.542-9.931L178.22,420.043z"/>
		<path style="fill:#D56A5F;" d="M116.574,421.68c5.149,0.394,12.908-0.098,15.219-0.262c0.428-2.007,0.656-3.633,0.656-3.633
			l-15.906,1.161C116.578,419.975,116.574,420.87,116.574,421.68z"/>
		<path style="fill:#D56A5F;" d="M192.474,415.695l-14.254,4.348c0.274,1.133,0.467,2.109,0.651,2.978
			c4.904-0.739,12.262-3.498,14.156-4.228C192.778,417.028,192.474,415.695,192.474,415.695z"/>
		<path style="fill:#414668;" d="M121.537,302.265c0,0-1.335,25.198-2.504,51.742c-1.164,26.443-4.23,61.656-3.998,65.835
			l18.576,1.393c0,0,8.591-34.366,10.217-48.53c1.625-14.164,8.824-40.254,8.824-40.254s21.479,81.038,24.497,88.468l17.067-2.703
			c0,0-7.895-86.611-12.307-108.438L121.537,302.265z"/>
		<path style="fill:#432A3F;" d="M121.026,312.155c7.372,3.161,19.516,6.464,31.895,6.127c15.101-0.412,25.792-5.9,29.117-7.839
			c-0.043-0.224-0.087-0.452-0.13-0.663l-60.372-7.514C121.537,302.265,121.337,306.025,121.026,312.155z"/>
		<path style="fill:#639795;" d="M143.596,215.19c0,0-13.545,3.483-22.214,13.7c-8.669,10.217-10.217,30.186-8.669,37.617
			c1.548,7.43,11.92,12.384,11.92,12.384l-5.418,25.542c0,0,39.01,17.338,64.707,4.954l-1.858-57.276
			c0,0,10.156,11.035,14.242,13.623c4.644,2.941,9.753,2.477,14.396,0.929s14.266-7.56,14.266-7.56l-2.755-12.896
			c0,0-13.679,3.583-16.775,2.964c-3.096-0.619-11.301-11.61-13.158-13.932c-1.297-1.622-10.062-13.313-14.087-15.48
			c-4.025-2.167-13.236-4.799-13.236-4.799l-12.926-0.619L143.596,215.19z"/>
		<path style="fill:#414668;" d="M183.807,305.873l-0.03-0.914c-6.553,2.331-13.654,3.066-20.599,3.145
			c-9.698,0.111-19.552-0.631-28.955-3.11c-2.625-0.692-5.219-1.489-7.753-2.463c-2.139-0.823-4.201-1.797-6.261-2.789l-0.12,0.565
			c3.737,2.196,7.936,3.75,12.053,4.99c4.717,1.421,9.605,2.299,14.492,2.876c4.933,0.583,9.906,0.822,14.872,0.826
			c4.833,0.003,9.682-0.256,14.448-1.095C178.623,307.434,181.259,306.772,183.807,305.873z"/>
		<path style="fill:#432A3F;" d="M145.411,209.368c0,0-7.026,3.038-10.828-2.869c-3.801-5.907-8.472-5.106-8.806-11.915
			c-0.334-6.809-4.055-10.035-1.511-16.697c2.543-6.662,9.643-15.09,15.598-13.108c0,0,9.885-7.047,14.431-4.898
			c4.546,2.149,4.821,1.877,8.309,1.685c3.488-0.192,7.022,4.012,9.39,7.888c2.368,3.876,1.713,11.352,1.713,11.352
			s3.303,5.722,1.969,10.528c-1.334,4.806-3.167,9.427-6.99,11.35C164.863,204.606,145.411,209.368,145.411,209.368z"/>
		<path style="fill:#E89C77;" d="M144.757,204.741l-1.161,10.449c0,0,10.077,9.104,21.362-0.232l-1.625-11.378L144.757,204.741z"/>
		<path style="fill:#D85654;" d="M160.133,270.437l-8.955-4.347l13.474-27.76c0,0,1.77-0.201,4.901,1.176
			c3.13,1.377,4.054,3.17,4.054,3.17L160.133,270.437z"/>
		<path style="fill:#5F7FA8;" d="M173.913,277.052l-9.589-2.671l8.282-29.726c0,0,1.392-0.203,5.086,0.673
			c3.694,0.876,4.503,1.998,4.503,1.998L173.913,277.052z"/>
		<path style="fill:#77A3CC;" d="M183.093,277.219l-9.35-3.415l10.586-28.985c0,0,1.626-0.806,5.069,0.446
			c3.443,1.252,4.281,2.969,4.281,2.969L183.093,277.219z"/>
		<path style="fill:#77A3CC;" d="M155.764,266.87l-9.938-0.574l1.781-30.806c0,0,0.661-0.928,4.98-0.74
			c4.32,0.188,4.957,1.315,4.957,1.315L155.764,266.87z"/>
		
			<rect x="136.65" y="255.129" transform="matrix(0.9689 0.2476 -0.2476 0.9689 74.2461 -31.1065)" style="fill:#FFD36A;" width="48.25" height="48.906"/>
		<path style="fill:#E89C77;" d="M139.833,281.512c1.499-8.62,5.159-11.641,5.159-11.641s4.994,1.826,7.623,2.527
			c2.629,0.701,11.153,0.633,13.846,0.666c2.693,0.033,2.523,1.814,1.568,2.397c-0.955,0.583-3.489,1.239-3.489,1.239
			s9.629,2.929,10.679,3.704c1.049,0.775,0.497,1.845-0.86,1.94c-1.357,0.095-8.016-0.767-8.016-0.767s8.111,2.124,8.895,3.323
			c0.784,1.199,0.254,2.047-1.994,2.056c0,0,0.254,2.047-1.994,2.056c0,0-0.796,1.272-2.779,0.858
			c-1.983-0.414-13.02-4.841-16.72-6.094C148.051,282.523,139.833,281.512,139.833,281.512z"/>
		<path style="fill:#D56A5F;" d="M144.757,204.741l-0.849,7.641c2.913,2.024,6.814,2.073,10.375,1.666
			c3.588-0.41,7.345-1.296,10.025-3.643l-0.46-3.219l-1.761-3.529L144.757,204.741z"/>
		<path style="fill:#E89C77;" d="M168.886,181.911c3.631,7.888,3.913,26.699-9.853,30.295
			c-16.466,4.303-21.723-11.852-21.723-11.852s-5.28,0.873-6.308-3.654c-1.028-4.527,3.556-5.073,3.556-5.073
			s4.78-3.016,6.636-5.929c1.856-2.913,4.745-7.417,4.745-7.417s2.971,2.338,6.377,2.177c3.407-0.161,4.74-1.298,7.509-0.649
			C162.595,180.457,168.886,181.911,168.886,181.911z"/>
		<path style="fill:#D56A5F;" d="M134.971,194.753c-0.271-0.137-0.559-0.253-0.858-0.309c-0.369-0.07-0.76-0.134-1.104,0.051
			c-0.166,0.089-0.268,0.281-0.268,0.466c0,0.204,0.108,0.353,0.268,0.467c0.141,0.1,0.298,0.13,0.46,0.177
			c0.064,0.019,0.128,0.04,0.19,0.063c0.021,0.008,0.041,0.016,0.062,0.024c0.004,0.002,0.001,0.001,0.006,0.003
			c0.119,0.059,0.239,0.116,0.353,0.184c0.057,0.035,0.113,0.071,0.168,0.109c0.016,0.011,0.032,0.022,0.047,0.034
			c0.001,0.001,0,0,0.001,0.001c0.031,0.027,0.059,0.057,0.089,0.084c-0.845,0.593-0.799,1.977,0.122,2.481
			c0.52,0.285,1.125,0.183,1.562-0.201c0.241-0.211,0.431-0.548,0.491-0.863C136.785,196.346,135.987,195.266,134.971,194.753z"/>
		<path style="fill:#D56A5F;" d="M168.886,181.911c0,0-6.291-1.453-9.061-2.103c-2.769-0.649-4.102,0.488-7.509,0.649
			c-3.407,0.161-6.377-2.177-6.377-2.177s-2.89,4.504-4.745,7.417c-1.856,2.913-6.636,5.929-6.636,5.929
			c1.67-0.387,5.343-1.639,7.847-3.976c2.504-2.337,4.507-6.594,4.507-6.594s2.588,2.17,7.345,1.252
			c4.758-0.918,5.008-1.586,7.429-0.668c1.918,0.727,5.609,0.984,7.645,1.349C169.188,182.614,169.041,182.249,168.886,181.911z"/>
		<path style="fill:#D56A5F;" d="M141.475,275.545l-0.924,6.06c0.794,0.105,2.172,0.297,3.749,0.553l1.841-11.873
			c-0.145-0.052-0.279-0.099-0.401-0.143l-3.45,3.575C142.016,274.259,141.743,274.868,141.475,275.545z"/>
		<polygon style="fill:#639795;" points="146.46,268.828 141.196,283.224 128.812,280.283 133.147,262.327 		"/>
		<path style="fill:#D56A5F;" d="M168.112,275.174c-0.42,0.03-0.856,0.217-1.244,0.373c-0.441,0.178-0.889,0.331-1.346,0.46
			c-0.442,0.125-0.889,0.227-1.342,0.303c-0.388,0.065-0.96,0.026-1.272,0.289c-0.084,0.071-0.047,0.201,0.033,0.254
			c0.348,0.23,0.958,0.064,1.344,0.008c0.47-0.068,0.936-0.162,1.395-0.285c0.458-0.123,0.909-0.275,1.349-0.453
			c0.409-0.165,0.889-0.398,1.168-0.749C168.251,275.303,168.224,275.166,168.112,275.174z"/>
		<path style="fill:#D56A5F;" d="M174.51,282.006c-0.719-0.27-1.54-0.216-2.296-0.246c-0.741-0.029-1.481-0.041-2.222-0.056
			c-0.725-0.014-1.448-0.049-2.17-0.119c-0.417-0.041-0.835-0.089-1.249-0.153c-0.317-0.048-0.621-0.139-0.939-0.068
			c-0.121,0.027-0.185,0.216-0.079,0.298c0.497,0.385,1.324,0.401,1.935,0.473c0.775,0.091,1.556,0.135,2.335,0.182
			c0.796,0.048,1.592,0.083,2.389,0.105c0.754,0.021,1.564,0.126,2.296-0.095C174.675,282.276,174.66,282.062,174.51,282.006z"/>
		<path style="fill:#D56A5F;" d="M174.985,286.29c-0.329-0.071-0.659,0.009-0.988,0.048c-0.376,0.044-0.75,0.064-1.129,0.046
			c-0.831-0.041-1.649-0.237-2.442-0.477c-0.763-0.231-1.51-0.509-2.258-0.782c-0.725-0.264-1.53-0.618-2.312-0.634
			c-0.007,0-0.011,0.009-0.006,0.014c0.624,0.543,1.51,0.821,2.272,1.12c0.793,0.311,1.586,0.63,2.399,0.885
			c0.763,0.239,1.547,0.422,2.347,0.476c0.664,0.045,1.691,0.088,2.182-0.453C175.119,286.457,175.097,286.314,174.985,286.29z"/>
		<path style="fill:#D56A5F;" d="M172.393,288.529c-0.276-0.065-0.564-0.03-0.845-0.024c-0.35,0.007-0.7-0.034-1.044-0.099
			c-0.646-0.121-1.283-0.306-1.913-0.492c-0.635-0.188-1.262-0.401-1.889-0.615c-0.571-0.195-1.178-0.518-1.787-0.543
			c-0.104-0.004-0.162,0.137-0.086,0.207c0.46,0.427,1.161,0.609,1.739,0.822c0.687,0.253,1.391,0.466,2.096,0.663
			c0.665,0.186,1.337,0.371,2.022,0.468c0.552,0.078,1.297,0.182,1.752-0.218C172.495,288.648,172.465,288.546,172.393,288.529z"/>
		<path style="fill:#414668;" d="M146.441,268.853c-1.586-1.139-3.342-2.099-5.037-3.066c-1.743-0.994-3.51-1.948-5.301-2.853
			c-1.577-0.797-3.195-1.512-4.751-2.348c-0.727-0.391-1.439-0.811-2.104-1.302c0.32-0.794,0.497-1.659,0.712-2.482
			c0.28-1.068,0.542-2.139,0.842-3.201c0.599-2.123,1.273-4.227,2.022-6.301c0.763-2.115,1.609-4.198,2.538-6.245
			c0.456-1.005,0.932-2.001,1.426-2.989c0.464-0.927,1.062-1.853,1.382-2.841c0.092-0.285-0.32-0.544-0.519-0.302
			c-0.684,0.827-1.139,1.885-1.624,2.836c-0.519,1.018-1.018,2.046-1.496,3.083c-0.907,1.967-1.743,3.967-2.506,5.994
			c-0.778,2.067-1.474,4.161-2.083,6.284c-0.304,1.06-0.599,2.125-0.852,3.199c-0.182,0.776-0.398,1.606-0.474,2.424
			c-0.461-0.413-0.903-0.843-1.377-1.244c-0.171-0.145-0.4,0.033-0.305,0.236c0.359,0.769,0.983,1.423,1.684,1.992
			c0.032,0.1,0.118,0.164,0.215,0.17c0.547,0.421,1.126,0.794,1.661,1.124c1.544,0.953,3.219,1.691,4.838,2.506
			c1.829,0.92,3.635,1.889,5.408,2.913c0.5,0.289,0.987,0.6,1.478,0.904c-0.408,1.047-0.729,2.135-1.113,3.189
			c-0.498,1.367-1.058,2.708-1.639,4.041c-0.548,1.259-1.128,2.503-1.724,3.741c-0.527,1.095-1.137,2.185-1.575,3.326
			c-0.409-0.059-0.817-0.118-1.223-0.19c-2.089-0.369-4.165-0.827-6.19-1.462c-2.008-0.63-3.961-1.424-5.811-2.431
			c-0.867-0.471-1.71-0.985-2.528-1.538c-0.44-0.297-0.871-0.607-1.295-0.927c-0.414-0.313-0.816-0.698-1.296-0.903
			c-0.126-0.054-0.292,0.064-0.205,0.205c0.476,0.767,1.412,1.334,2.13,1.864c0.856,0.631,1.746,1.217,2.663,1.755
			c1.831,1.074,3.774,1.955,5.788,2.626c2.127,0.708,4.316,1.216,6.519,1.621c2.148,0.396,4.366,0.832,6.546,0.985
			c0.474,0.033,0.584-0.741,0.113-0.835c-1.452-0.29-2.933-0.458-4.407-0.655c0.593-0.994,1.065-2.083,1.563-3.116
			c0.631-1.309,1.246-2.626,1.821-3.961c0.54-1.254,1.036-2.528,1.487-3.817c0.36-1.028,0.723-2.095,0.931-3.177
			c1.062,0.665,2.121,1.335,3.205,1.961C146.499,269.943,146.911,269.19,146.441,268.853z"/>
		<path style="fill:#414668;" d="M177.18,243.746c-0.055-0.476-0.123-0.952-0.191-1.426c-0.153-1.063-0.333-2.121-0.537-3.175
			c-0.198-1.018-0.424-2.029-0.675-3.035c-0.244-0.978-0.481-2.008-0.912-2.923c-0.098-0.207-0.473-0.113-0.445,0.121
			c0.117,0.973,0.406,1.934,0.629,2.888c0.236,1.01,0.448,2.026,0.642,3.044c0.194,1.019,0.364,2.042,0.51,3.069
			c0.078,0.552,0.143,1.105,0.214,1.658c0.051,0.401,0.052,0.743,0.333,1.044c0.102,0.108,0.283,0.076,0.356-0.046
			C177.333,244.584,177.229,244.171,177.18,243.746z"/>
		<path style="fill:#414668;" d="M167.91,215.85c-0.382-0.12-0.731-0.228-1.054-0.327c-0.46,0.636-0.945,1.254-1.48,1.828
			c-1.523,1.633-3.337,2.986-5.37,3.918c-4.169,1.911-9.27,1.876-13.252-0.491c-1.217-0.724-2.286-1.659-3.247-2.695
			c-0.659-0.71-1.225-1.542-1.854-2.295c-0.179,0.06-0.368,0.126-0.568,0.196c0.471,0.756,1.074,1.465,1.626,2.116
			c0.85,1.002,1.791,1.926,2.85,2.707c1.941,1.429,4.269,2.268,6.652,2.557c4.901,0.594,9.65-1.196,13.193-4.58
			C166.337,217.897,167.176,216.907,167.91,215.85z"/>
		<path style="fill:#432A3F;" d="M149.49,187.119c-0.077-0.336-0.492-0.6-0.796-0.681c-0.251-0.067-0.519-0.098-0.777-0.115
			c-0.911-0.06-1.88,0.209-2.612,0.76c-0.403,0.303-0.741,0.649-1.024,1.068c-0.286,0.423-0.578,0.993-0.376,1.505
			c0.114,0.29,0.477,0.54,0.785,0.319c0.378-0.271,0.516-0.649,0.769-1.018c0.019-0.027,0.039-0.054,0.058-0.081
			c0.011-0.014,0.028-0.035,0.034-0.042c0.06-0.067,0.119-0.135,0.182-0.199c0.063-0.064,0.129-0.126,0.198-0.185
			c0.023-0.02,0.046-0.038,0.069-0.057c0.009-0.004,0.099-0.07,0.104-0.074c0.149-0.1,0.307-0.19,0.472-0.263
			c-0.102,0.046,0.157-0.054,0.179-0.061c0.11-0.035,0.221-0.063,0.334-0.086c0.02-0.004,0.086-0.016,0.103-0.02
			c0.037-0.004,0.074-0.008,0.111-0.011c0.102-0.008,0.204-0.011,0.307-0.01c0.103,0.001,0.205,0.009,0.307,0.018
			c-0.034-0.003-0.138-0.026,0.02,0.003c0.063,0.012,0.125,0.024,0.188,0.038c0.267,0.062,0.507,0.107,0.781,0.07
			C149.336,187.939,149.584,187.531,149.49,187.119z"/>
		<path style="fill:#432A3F;" d="M164.875,185.251c-0.151-0.717-0.915-1.043-1.55-1.24c-0.516-0.16-1.082-0.228-1.622-0.198
			c-0.596,0.034-1.159,0.168-1.705,0.405c-0.549,0.238-1.217,0.626-1.235,1.296c-0.009,0.332,0.268,0.528,0.564,0.564
			c0.069,0.008,0.123,0.01,0.194,0c0.06,0,0.116-0.015,0.168-0.045c0.093-0.039,0.106-0.044,0.039-0.018
			c0.131-0.052,0.265-0.1,0.39-0.165c0.091-0.048,0.182-0.098,0.273-0.145c0.022-0.011,0.021-0.011,0.032-0.017
			c0.004-0.002,0,0.001,0.007-0.002c0.053-0.021,0.107-0.041,0.161-0.06c0.209-0.072,0.42-0.113,0.635-0.16
			c0.008-0.002,0.002-0.001,0.007-0.002c0.01-0.001,0.007,0,0.022-0.001c0.046-0.004,0.092-0.008,0.137-0.012
			c0.115-0.008,0.23-0.011,0.346-0.009c0.104,0.002,0.208,0.008,0.311,0.018c0.044,0.004,0.202,0.037,0.019,0
			c0.045,0.009,0.091,0.015,0.136,0.024c0.217,0.042,0.419,0.115,0.629,0.179c0.008,0.003,0.004,0,0.008,0.001
			c0.004,0.002,0.002,0.001,0.007,0.004c0.051,0.025,0.103,0.049,0.154,0.075c0.092,0.047,0.18,0.1,0.268,0.153
			c0.286,0.169,0.563,0.279,0.9,0.279C164.668,186.174,164.971,185.711,164.875,185.251z"/>
		<path style="fill:#432A3F;" d="M150.495,192.613c-0.064-0.395-0.164-0.763-0.273-1.053c-0.298-0.79-0.938-1.547-1.86-1.509
			c-0.871,0.036-1.455,0.799-1.527,1.621c-0.129,1.494,0.251,4.676,2.63,3.871C150.563,195.172,150.683,193.773,150.495,192.613z"/>
		<path style="fill:#432A3F;" d="M164.017,191.11c-0.064-0.395-0.164-0.763-0.273-1.053c-0.298-0.79-0.938-1.547-1.86-1.509
			c-0.871,0.036-1.455,0.799-1.527,1.621c-0.129,1.494,0.251,4.675,2.63,3.871C164.085,193.669,164.205,192.27,164.017,191.11z"/>
		<path style="fill:#D56A5F;" d="M157.939,195.686c-0.048-0.192-0.246-0.344-0.445-0.339c-0.09,0.003-0.193,0.017-0.281,0.039
			c-0.124,0.032-0.205,0.106-0.302,0.183c-0.02,0.016-0.02,0.016-0.022,0.017c-0.094,0.064-0.188,0.129-0.276,0.201
			c-0.021,0.018-0.042,0.035-0.063,0.053c-0.007,0.006-0.012,0.011-0.034,0.027c-0.132,0.095-0.273,0.177-0.419,0.248
			c-0.019,0.009-0.038,0.017-0.056,0.026c0-0.001-0.073,0.029-0.088,0.034c-0.077,0.028-0.155,0.051-0.234,0.073
			c-0.157,0.045-0.312,0.085-0.471,0.119c-0.013,0.003-0.012,0.003-0.018,0.004c-0.002,0,0,0-0.004,0
			c-0.041,0.004-0.081,0.009-0.122,0.012c-0.111,0.008-0.219,0.014-0.33,0.027c0.105-0.012-0.051,0.004-0.058,0.004
			c-0.032,0.003-0.064,0.005-0.096,0.006c-0.096,0.004-0.19,0.001-0.285,0.011c-0.133,0.014-0.293,0.019-0.444,0.001
			c-0.147-0.017-0.183,0.173-0.109,0.263c0.114,0.138,0.238,0.279,0.378,0.391c0.162,0.13,0.375,0.216,0.569,0.286
			c0.39,0.141,0.911,0.126,1.314,0.05c0.4-0.075,0.801-0.238,1.145-0.454C157.617,196.698,158.079,196.239,157.939,195.686z"/>
		<path style="fill:#FFFFFF;" d="M162.855,188.362c-1.125,0-1.127,1.749,0,1.749C163.98,190.111,163.982,188.362,162.855,188.362z"
			/>
		<path style="fill:#FFFFFF;" d="M149.332,190.24c-1.125,0-1.127,1.749,0,1.749C150.458,191.989,150.46,190.24,149.332,190.24z"/>
		<path style="fill:#D56A5F;" d="M159.152,200.245c-0.456,0.236-0.797,0.651-1.255,0.899c-0.427,0.231-0.904,0.371-1.379,0.467
			c-0.463,0.094-0.959,0.106-1.426,0.028c-0.255-0.042-0.509-0.11-0.757-0.182c-0.251-0.073-0.479-0.132-0.736-0.18
			c-0.107-0.02-0.207,0.087-0.146,0.19c0.595,1.011,2.126,1.246,3.203,1.168c0.639-0.046,1.239-0.227,1.808-0.519
			c0.56-0.287,1.185-0.705,1.396-1.326C160.005,200.368,159.502,200.064,159.152,200.245z"/>
		
			<rect x="184.265" y="249.272" transform="matrix(0.9408 0.3391 -0.3391 0.9408 97.0244 -48.2877)" style="fill:#FFFFFF;" width="4.883" height="8.514"/>
		
			<rect x="173.435" y="248.459" transform="matrix(0.9621 0.2728 -0.2728 0.9621 75.5994 -38.3895)" style="fill:#FFFFFF;" width="4.883" height="8.514"/>
		
			<rect x="163.731" y="242.887" transform="matrix(0.903 0.4296 -0.4296 0.903 122.2957 -47.4206)" style="fill:#FFFFFF;" width="4.883" height="8.514"/>
		
			<rect x="149.771" y="239.569" transform="matrix(0.9983 0.0591 -0.0591 0.9983 14.6662 -8.5641)" style="fill:#FFFFFF;" width="4.883" height="8.514"/>
		<path style="fill:#D3E7EF;" d="M188.104,251.327c-0.054-0.039-0.108-0.084-0.167-0.115c-0.069-0.037-0.15-0.058-0.223-0.085
			c-0.064-0.024-0.128-0.051-0.193-0.071c-0.061-0.019-0.125-0.029-0.187-0.043c-0.129-0.029-0.257-0.064-0.388-0.087
			c-0.066-0.012-0.155-0.038-0.22-0.02c-0.056,0.015-0.103,0.066-0.093,0.126c0.02,0.121,0.181,0.181,0.281,0.231
			c0.109,0.055,0.218,0.11,0.327,0.165c0.122,0.061,0.247,0.105,0.375,0.149c0.056,0.02,0.112,0.043,0.171,0.055
			c0.074,0.015,0.153,0.015,0.228,0.02c0.075,0.005,0.149-0.058,0.168-0.128C188.206,251.444,188.167,251.372,188.104,251.327z"/>
		<path style="fill:#D3E7EF;" d="M188.702,253.332c-0.087-0.137-0.231-0.168-0.376-0.223c-0.141-0.053-0.282-0.107-0.423-0.161
			c-0.292-0.112-0.583-0.227-0.873-0.343c-0.289-0.116-0.585-0.216-0.877-0.323c-0.265-0.097-0.567-0.238-0.847-0.12
			c-0.018,0.008-0.025,0.023-0.017,0.042c0.118,0.275,0.427,0.381,0.685,0.487c0.288,0.119,0.576,0.244,0.871,0.346
			c0.295,0.101,0.59,0.199,0.886,0.296c0.143,0.047,0.286,0.093,0.429,0.138c0.147,0.047,0.304,0.127,0.457,0.072
			C188.7,253.511,188.755,253.415,188.702,253.332z"/>
		<path style="fill:#D3E7EF;" d="M187.951,255.085c-0.087-0.137-0.231-0.168-0.376-0.223c-0.141-0.053-0.282-0.107-0.423-0.161
			c-0.292-0.112-0.583-0.227-0.873-0.343c-0.289-0.116-0.585-0.216-0.877-0.323c-0.265-0.097-0.567-0.238-0.847-0.12
			c-0.018,0.008-0.025,0.023-0.017,0.042c0.118,0.275,0.427,0.381,0.685,0.487c0.288,0.119,0.576,0.244,0.871,0.345
			c0.295,0.101,0.59,0.2,0.886,0.296c0.143,0.046,0.286,0.093,0.429,0.138c0.147,0.047,0.304,0.127,0.457,0.072
			C187.948,255.264,188.003,255.168,187.951,255.085z"/>
		<path style="fill:#D3E7EF;" d="M177.51,251.567c-0.044-0.082-0.144-0.094-0.222-0.058c-0.206,0.095-0.256,0.387-0.321,0.582
			c-0.066,0.197-0.129,0.395-0.189,0.594c-0.06,0.199-0.117,0.398-0.17,0.599c-0.027,0.101-0.053,0.201-0.073,0.303
			c-0.026,0.132-0.068,0.269-0.013,0.398c0.068,0.162,0.252,0.236,0.394,0.104c0.163-0.152,0.184-0.448,0.229-0.657
			c0.044-0.203,0.091-0.406,0.141-0.607c0.05-0.201,0.103-0.402,0.16-0.602C177.503,252.014,177.621,251.774,177.51,251.567z"/>
		<path style="fill:#D3E7EF;" d="M176.647,249.428c-0.029-0.082-0.122-0.13-0.202-0.082c-0.197,0.118-0.249,0.318-0.327,0.525
			c-0.099,0.259-0.197,0.518-0.296,0.777c-0.184,0.483-0.362,0.968-0.54,1.454c-0.178,0.485-0.355,0.971-0.533,1.456
			c-0.089,0.243-0.177,0.486-0.263,0.729c-0.088,0.249-0.245,0.529-0.217,0.796c0.018,0.167,0.206,0.267,0.339,0.14
			c0.177-0.169,0.23-0.42,0.314-0.645c0.097-0.26,0.193-0.519,0.288-0.779c0.176-0.486,0.352-0.971,0.529-1.457
			c0.176-0.486,0.353-0.971,0.523-1.459c0.085-0.244,0.17-0.488,0.255-0.731C176.596,249.92,176.731,249.673,176.647,249.428z"/>
		<path style="fill:#D3E7EF;" d="M167.166,244.648c-0.28,0.32-0.441,0.758-0.627,1.138c-0.202,0.413-0.398,0.828-0.585,1.248
			c-0.177,0.397-0.349,0.796-0.518,1.197c-0.086,0.204-0.162,0.411-0.235,0.62c-0.071,0.202-0.158,0.409-0.146,0.627
			c0.005,0.085,0.102,0.126,0.166,0.069c0.161-0.146,0.246-0.352,0.341-0.543c0.092-0.185,0.185-0.369,0.27-0.557
			c0.184-0.404,0.372-0.805,0.565-1.204c0.193-0.399,0.389-0.798,0.588-1.195c0.19-0.379,0.457-0.766,0.56-1.178
			C167.596,244.661,167.322,244.471,167.166,244.648z"/>
		<path style="fill:#D3E7EF;" d="M166.039,244.148c-0.28,0.32-0.441,0.758-0.628,1.138c-0.202,0.413-0.398,0.828-0.585,1.248
			c-0.177,0.397-0.349,0.796-0.518,1.197c-0.086,0.204-0.162,0.411-0.235,0.62c-0.071,0.202-0.158,0.409-0.146,0.627
			c0.005,0.085,0.102,0.126,0.166,0.069c0.161-0.146,0.246-0.352,0.341-0.543c0.092-0.185,0.185-0.369,0.27-0.557
			c0.184-0.404,0.372-0.805,0.565-1.204c0.193-0.399,0.389-0.798,0.588-1.195c0.19-0.379,0.457-0.766,0.56-1.178
			C166.47,244.161,166.195,243.97,166.039,244.148z"/>
		<path style="fill:#D3E7EF;" d="M167.752,246.855c-0.234,0.056-0.386,0.285-0.523,0.467c-0.137,0.183-0.267,0.372-0.388,0.567
			c-0.118,0.189-0.216,0.39-0.309,0.592c-0.05,0.108-0.106,0.219-0.14,0.334c-0.017,0.058-0.042,0.123-0.042,0.184
			c0,0.057,0.02,0.119,0.033,0.175c0.019,0.087,0.134,0.133,0.208,0.085c0.041-0.027,0.085-0.051,0.122-0.082
			c0.051-0.042,0.082-0.101,0.116-0.158c0.055-0.089,0.098-0.185,0.147-0.278c0.103-0.197,0.218-0.388,0.33-0.58
			c0.109-0.187,0.225-0.369,0.349-0.547c0.129-0.184,0.293-0.365,0.307-0.599C167.969,246.903,167.851,246.831,167.752,246.855z"/>
		<path style="fill:#D3E7EF;" d="M153.839,242.007c-0.52-0.008-1.041-0.016-1.561-0.021c-0.255-0.003-0.511-0.01-0.766-0.008
			c-0.127,0.001-0.256,0.012-0.383,0.022c-0.134,0.011-0.213,0.059-0.331,0.121c-0.049,0.025-0.046,0.099,0,0.126
			c0.118,0.068,0.193,0.117,0.331,0.132c0.117,0.013,0.235,0.029,0.353,0.036c0.264,0.016,0.531,0.015,0.795,0.022
			c0.52,0.014,1.04,0.027,1.561,0.038C154.141,242.483,154.142,242.011,153.839,242.007z"/>
		<path style="fill:#D3E7EF;" d="M153.714,244.01c-0.52-0.008-1.04-0.016-1.561-0.021c-0.255-0.003-0.511-0.01-0.766-0.008
			c-0.127,0.001-0.256,0.012-0.383,0.022c-0.134,0.011-0.213,0.059-0.331,0.121c-0.049,0.025-0.046,0.099,0,0.126
			c0.118,0.068,0.193,0.117,0.331,0.132c0.117,0.013,0.235,0.029,0.353,0.036c0.264,0.016,0.531,0.015,0.795,0.022
			c0.52,0.015,1.04,0.027,1.561,0.038C154.016,244.486,154.016,244.014,153.714,244.01z"/>
		<path style="fill:#414668;" d="M225.055,269.201h-0.258c-1.957,0-3.544-1.586-3.544-3.544V239.69c0-1.957,1.587-3.544,3.544-3.544
			h0.258c1.957,0,3.544,1.587,3.544,3.544v25.967C228.599,267.614,227.012,269.201,225.055,269.201z"/>
		<path style="fill:#E89C77;" d="M225.253,245.298c-2.309,0.289-3.096,2.786-0.31,2.786c0,0-3.406,2.786-0.31,3.251
			c0,0-2.322,2.322,0.619,2.941c0,0-0.619,2.167,1.238,2.322c1.858,0.155,4.18,0.774,5.263-0.774
			c1.084-1.548-0.619-2.941-0.619-2.941s0.619-1.238-0.619-2.941c0,0,0.994-1.467-0.31-3.096c0,0,1.084-1.548-0.774-1.858
			C227.575,244.679,226.491,245.144,225.253,245.298z"/>
		<path style="fill:#D56A5F;" d="M229.877,246.812c-0.135-0.159-0.408-0.147-0.602-0.135c-0.259,0.016-0.52,0.055-0.777,0.091
			c-0.534,0.075-1.063,0.179-1.586,0.311c-0.508,0.129-1.007,0.284-1.493,0.481c-0.23,0.093-0.504,0.174-0.696,0.337
			c-0.052,0.044-0.227,0.221-0.124,0.301c0.136,0.107,0.305,0.074,0.464,0.029c0.241-0.069,0.476-0.176,0.715-0.254
			c0.467-0.152,0.935-0.301,1.412-0.42c0.476-0.119,0.959-0.216,1.445-0.287c0.251-0.037,0.505-0.051,0.755-0.091
			c0.187-0.03,0.395-0.058,0.504-0.224C229.924,246.905,229.909,246.849,229.877,246.812z"/>
		<path style="fill:#D56A5F;" d="M230.337,249.923c-0.369-0.256-0.978-0.101-1.393-0.052c-0.526,0.063-1.05,0.147-1.568,0.256
			c-0.513,0.108-1.014,0.261-1.51,0.432c-0.457,0.158-1.008,0.318-1.38,0.634c-0.118,0.1-0.026,0.333,0.132,0.318
			c0.487-0.048,0.977-0.29,1.445-0.436c0.483-0.151,0.974-0.277,1.464-0.402c0.49-0.124,0.985-0.227,1.484-0.307
			c0.414-0.066,1.015-0.029,1.342-0.323C230.392,250.009,230.375,249.95,230.337,249.923z"/>
		<path style="fill:#D56A5F;" d="M231.018,253.123c-0.368-0.224-0.962-0.044-1.365,0.014c-0.501,0.072-0.993,0.18-1.484,0.304
			c-0.49,0.125-0.975,0.267-1.455,0.426c-0.464,0.154-0.979,0.293-1.396,0.551c-0.122,0.075-0.039,0.246,0.094,0.222
			c0.473-0.084,0.937-0.286,1.401-0.416c0.487-0.136,0.979-0.255,1.475-0.356c0.479-0.097,0.961-0.176,1.443-0.256
			c0.397-0.066,0.996-0.034,1.31-0.318C231.093,253.246,231.075,253.158,231.018,253.123z"/>
	</g>
	<g>
		<ellipse style="fill:#77A3CC;" cx="395.974" cy="428.261" rx="33.063" ry="7.741"/>
		<path style="fill:#639795;" d="M376.703,252.874c2.35,0.532,4.604,2.717,6.275,4.353c3.748,3.67,6.378,8.27,8.183,13.164
			c1.121,3.039,1.909,6.201,2.402,9.402c0.05,0.323,0.098,0.65,0.146,0.978c0.461-3.471,1.364-6.897,2.547-10.148
			c0.652-1.792,1.407-3.54,2.243-5.247c0.258-0.596,0.557-1.177,0.888-1.742c0.09-0.168,0.185-0.332,0.277-0.498
			c0.407-1.478,0.628-3.036,0.73-4.598c-0.008-0.024-0.019-0.044-0.022-0.072c-0.217-2.146-0.668-3.899-1.876-5.725
			c-1.22-1.844-2.83-3.389-4.175-5.137c-2.322-3.019-3.98-7.421-2.164-11.104c0.653-1.325,2.023-2.72,3.537-1.661
			c0.736,0.515,1.171,1.407,1.589,2.173c0.514,0.943,0.985,1.91,1.41,2.896c1.647,3.825,2.628,7.899,2.913,12.052
			c0.16,2.338,0.105,4.681-0.275,6.995c-0.042,0.256-0.086,0.515-0.133,0.776c0.92-1.5,1.963-2.936,2.854-4.455
			c1.126-1.921,2.164-3.896,3.041-5.944c0.48-1.119,0.908-2.259,1.292-3.413c0.584-4.482-1.728-8.103-2.945-12.254
			c-0.568-1.937-0.893-4.043-0.476-6.043c0.301-1.445,1.231-3.643,2.859-4.024c1.867-0.438,2.338,1.998,2.68,3.282
			c0.564,2.118,0.869,4.302,0.953,6.491c0.179,4.641-0.695,9.28-2.271,13.637c-0.809,2.236-1.805,4.403-2.922,6.502
			c0.265-0.317,0.516-0.644,0.787-0.956c4.083-4.698,10.037-7.748,13.673-12.835c3.393-4.748,2.659-12.052,7.79-15.61
			c2.286-1.585,6.277-1.862,6.99,1.525c0.658,3.129-1.759,6.12-3.705,8.257c-5.196,5.707-12.407,9.119-18.131,14.239
			c-2.985,2.67-5.707,5.641-8.116,8.845c0.152-0.114,0.304-0.229,0.457-0.338c4.003-2.863,8.607-4.849,13.238-6.455
			c3.901-1.353,9.41-2.608,12.954,0.354c1.413,1.181,1.46,2.986,0.314,4.382c-1.081,1.318-2.844,1.892-4.496,1.981
			c-5.057,0.27-9.284-3.631-14.307-3.187c-2.213,0.965-4.363,2.068-6.374,3.393c-1.481,0.977-2.891,2.096-4.19,3.321
			c-1.234,1.908-2.372,3.878-3.373,5.918c-1.179,2.401-2.149,4.908-2.934,7.47c0.361-0.461,0.748-0.898,1.111-1.302
			c1.471-1.639,3.084-3.146,4.823-4.499c3.19-2.483,6.839-4.739,10.76-5.832c2.689-0.75,8.472-1.284,9.349,2.429
			c0.342,1.446-0.486,2.932-1.616,3.79c-1.369,1.04-3.178,1.121-4.823,0.945c-2.307-0.246-4.562-0.692-6.892-0.718
			c-1.22-0.014-2.439,0.058-3.641,0.268c-1.132,0.198-2.216,0.658-3.35,0.801c-1.004,0.799-1.986,1.627-2.913,2.512
			c-0.775,0.74-1.552,1.502-2.212,2.347c-0.585,0.748-0.997,1.592-1.45,2.419c-0.108,0.459-0.234,0.914-0.328,1.375
			c-0.534,2.628-0.797,5.313-0.893,8.002c0.338-0.8,0.789-1.562,1.214-2.231c0.911-1.433,2.004-2.693,3.261-3.834
			c2.506-2.274,5.502-3.984,8.725-5.007c1.613-0.512,3.287-0.84,4.975-0.967c1.455-0.109,3.228,0.146,3.75,1.749
			c0.513,1.576-1.023,2.652-2.262,3.235c-1.499,0.706-3.168,0.899-4.807,0.944c-1.951,0.053-3.912-0.149-5.853,0.124
			c-0.937,0.132-1.863,0.353-2.718,0.767c-0.782,0.379-1.35,1.075-2.187,1.302c-0.07,0.019-0.142,0-0.207-0.032
			c-0.407,0.42-0.806,0.848-1.195,1.287c-0.624,0.704-1.204,1.455-1.722,2.241c-0.441,0.67-0.741,1.358-1.013,2.073
			c-0.013,1.058-0.004,2.115,0.021,3.168c0.013,0.523-0.823,0.599-0.914,0.084c-0.077-0.442-0.117-0.888-0.174-1.332
			c-0.11-0.039-0.2-0.126-0.221-0.279c-0.347-2.577-0.382-5.188-0.723-7.769c-0.34-2.579-0.815-5.145-1.503-7.655
			c-0.293-1.07-0.637-2.124-1.017-3.164c-2.084-3.499-6.062-4.999-9.569-6.768c-3.179-1.604-7.503-4.248-7.363-8.366
			C373.329,254.033,374.686,252.417,376.703,252.874z"/>
		<path style="fill:#97C6A7;" d="M425.408,252.999c-3.035-0.258-6.586,1.511-9.224,2.842c-5.919,2.986-10.848,7.521-14.896,12.725
			c-2.514,3.232-4.673,6.739-6.492,10.406c-0.184,0.37-0.367,0.746-0.551,1.122c0.773-4.358,0.996-8.83,0.816-13.199
			c-0.099-2.408-0.34-4.802-0.693-7.178c-0.082-0.817-0.221-1.631-0.403-2.438c-0.044-0.236-0.096-0.471-0.143-0.706
			c0.076-1.936,0.406-3.897,0.88-5.818c0.018-0.026,0.04-0.046,0.054-0.078c1.083-2.502,2.297-4.441,4.452-6.178
			c2.175-1.754,4.706-2.999,6.995-4.59c3.952-2.748,7.635-7.416,6.857-12.547c-0.28-1.846-1.395-4.05-3.625-3.354
			c-1.084,0.338-1.949,1.246-2.745,2.009c-0.98,0.939-1.917,1.923-2.807,2.949c-3.448,3.977-6.189,8.509-8.122,13.403
			c-1.088,2.755-1.918,5.599-2.346,8.532c-0.047,0.324-0.093,0.654-0.137,0.986c-0.534-2.159-1.241-4.288-1.732-6.458
			c-0.622-2.745-1.115-5.521-1.388-8.324c-0.149-1.532-0.229-3.069-0.25-4.606c1.012-5.622,5.182-9.099,8.238-13.634
			c1.425-2.115,2.623-4.528,2.886-7.097c0.19-1.856-0.088-4.859-1.903-5.942c-2.082-1.242-3.581,1.511-4.485,2.927
			c-1.49,2.335-2.693,4.849-3.633,7.454c-1.992,5.522-2.715,11.445-2.484,17.295c0.119,3.003,0.488,5.995,1.031,8.95
			c-0.197-0.483-0.375-0.974-0.582-1.453c-3.121-7.222-9.125-13.175-11.557-20.694c-2.27-7.018,1.41-15.535-3.409-21.785
			c-2.147-2.784-6.849-4.645-9.004-0.838c-1.991,3.517-0.224,8.045,1.302,11.364c4.075,8.864,11.455,15.733,16.39,24.092
			c2.574,4.359,4.715,8.979,6.391,13.761c-0.14-0.195-0.279-0.392-0.422-0.582c-3.726-4.981-8.511-9.135-13.475-12.843
			c-4.181-3.124-10.337-6.743-15.74-4.531c-2.154,0.882-2.902,3.037-2.056,5.159c0.798,2.001,2.701,3.368,4.658,4.106
			c5.988,2.261,12.573-0.82,18.453,1.637c2.296,2.009,4.464,4.161,6.379,6.526c1.411,1.743,2.68,3.632,3.775,5.604
			c0.756,2.771,1.372,5.579,1.798,8.419c0.501,3.344,0.71,6.734,0.675,10.121c-0.258-0.694-0.557-1.367-0.84-1.993
			c-1.145-2.538-2.511-4.97-4.087-7.265c-2.892-4.212-6.425-8.326-10.73-11.143c-2.952-1.932-9.714-4.789-12.191-0.653
			c-0.965,1.611-0.537,3.717,0.496,5.184c1.251,1.777,3.399,2.567,5.448,2.985c2.873,0.586,5.76,0.913,8.576,1.773
			c1.474,0.45,2.915,1.004,4.283,1.717c1.287,0.671,2.418,1.64,3.728,2.247c0.904,1.347,1.77,2.72,2.548,4.141
			c0.651,1.188,1.294,2.403,1.767,3.674c0.418,1.124,0.592,2.3,0.821,3.469c-0.046,0.594-0.068,1.19-0.132,1.782
			c-0.362,3.37-1.074,6.704-1.986,9.98c-0.101-1.092-0.353-2.183-0.609-3.152c-0.549-2.075-1.384-4.011-2.461-5.866
			c-2.148-3.698-5.102-6.905-8.594-9.371c-1.747-1.234-3.638-2.27-5.622-3.069c-1.711-0.688-3.944-1.06-5.187,0.671
			c-1.221,1.702,0.218,3.586,1.487,4.762c1.536,1.424,3.472,2.296,5.429,2.977c2.33,0.81,4.77,1.318,7.004,2.389
			c1.078,0.517,2.109,1.139,2.98,1.965c0.797,0.755,1.215,1.812,2.136,2.406c0.077,0.05,0.171,0.054,0.262,0.04
			c0.329,0.662,0.647,1.33,0.947,2.008c0.482,1.087,0.894,2.213,1.216,3.358c0.275,0.976,0.373,1.92,0.427,2.885
			c-0.389,1.28-0.805,2.549-1.238,3.807c-0.215,0.625,0.763,1.037,1.068,0.45c0.262-0.502,0.48-1.024,0.719-1.537
			c0.148-0.005,0.289-0.075,0.373-0.252c1.404-2.972,2.446-6.102,3.845-9.081c1.397-2.976,2.951-5.885,4.741-8.645
			c0.763-1.177,1.58-2.315,2.436-3.422c3.85-3.417,9.216-3.701,14.117-4.49c4.444-0.715,10.664-2.245,12.071-7.259
			C429.03,255.686,428.013,253.22,425.408,252.999z"/>
		<path style="fill:#D85654;" d="M369.818,282.206h49.081l-3.861,35.504c0,0-6.62,4.419-20.515,4.419
			c-13.895,0-20.843-4.419-20.843-4.419L369.818,282.206z"/>
		<g>
			<path style="fill:#432A3F;" d="M416.354,304.239h-43.7c-0.286,0-0.518-0.232-0.518-0.518c0-0.286,0.232-0.518,0.518-0.518h43.7
				c0.286,0,0.518,0.232,0.518,0.518C416.872,304.007,416.64,304.239,416.354,304.239z"/>
		</g>
		<g>
			<path style="fill:#432A3F;" d="M394.504,432.352c-10.585,0-26.332-1.257-26.332-4.72c0-3.461,15.747-4.719,26.332-4.719
				s26.332,1.257,26.332,4.719C420.835,431.095,405.089,432.352,394.504,432.352z M394.504,423.95
				c-15.441,0-25.295,2.181-25.295,3.682c0,1.502,9.854,3.683,25.295,3.683s25.295-2.181,25.295-3.683
				C419.799,426.131,409.945,423.95,394.504,423.95z"/>
		</g>
		<g>
			<path style="fill:#432A3F;" d="M385.842,432.106c-0.04,0-0.08-0.004-0.121-0.014c-0.278-0.067-0.45-0.346-0.384-0.624
				L415.85,303.6c0.066-0.278,0.343-0.454,0.625-0.384c0.278,0.067,0.45,0.346,0.384,0.625l-30.512,127.867
				C386.289,431.946,386.077,432.106,385.842,432.106z"/>
		</g>
		<g>
			<path style="fill:#432A3F;" d="M369.102,427.407c-0.029,0-0.058-0.002-0.087-0.007c-0.282-0.048-0.473-0.315-0.425-0.597
				l20.75-123.169c0.048-0.282,0.321-0.471,0.597-0.425c0.282,0.048,0.473,0.315,0.425,0.597l-20.75,123.168
				C369.57,427.228,369.35,427.407,369.102,427.407z"/>
		</g>
		<g>
			<path style="fill:#432A3F;" d="M420.316,428.15c-0.249,0-0.469-0.18-0.51-0.434l-20.45-123.911
				c-0.047-0.282,0.145-0.548,0.427-0.595c0.277-0.05,0.549,0.145,0.595,0.427l20.45,123.911c0.047,0.282-0.145,0.549-0.427,0.595
				C420.373,428.148,420.344,428.15,420.316,428.15z"/>
		</g>
		<g>
			<path style="fill:#432A3F;" d="M405.631,431.942c-0.231,0-0.441-0.155-0.502-0.388l-32.977-126.993
				c-0.072-0.277,0.095-0.56,0.371-0.633c0.28-0.071,0.561,0.096,0.633,0.371l32.977,126.993c0.072,0.277-0.095,0.56-0.371,0.633
				C405.718,431.937,405.674,431.942,405.631,431.942z"/>
		</g>
		<g>
			<path style="fill:#432A3F;" d="M420.317,428.15c-0.279,0-0.509-0.222-0.518-0.502l-3.964-123.911
				c-0.009-0.285,0.216-0.525,0.502-0.534c0.257,0.017,0.525,0.217,0.534,0.502l3.964,123.911c0.009,0.285-0.216,0.525-0.502,0.534
				C420.328,428.15,420.322,428.15,420.317,428.15z"/>
		</g>
		<g>
			<path style="fill:#432A3F;" d="M369.101,427.407c-0.005,0-0.01,0-0.015,0c-0.285-0.008-0.511-0.247-0.503-0.533l3.553-123.168
				c0.009-0.286,0.263-0.485,0.533-0.503c0.285,0.008,0.511,0.247,0.503,0.533l-3.553,123.169
				C369.611,427.185,369.38,427.407,369.101,427.407z"/>
		</g>
		<g>
			<path style="fill:#FFD36A;" d="M373.612,288.416c-1.039,0.005-2.078,0.012-3.117,0.018l0.208,1.912
				c14.546,0.044,29.093,0.128,43.64,0.105c1.22-0.002,2.439-0.004,3.659-0.006l0.225-2.073
				C403.356,288.352,388.484,288.342,373.612,288.416z"/>
			<path style="fill:#FFD36A;" d="M371.607,294.094c-0.165,0.002-0.33,0.005-0.496,0.007l0.147,1.35
				c14.249,0.191,28.509,0.064,42.751,0.069c1.147,0.001,2.294,0.001,3.442,0.001l0.169-1.555
				C402.282,293.961,386.944,293.957,371.607,294.094z"/>
		</g>
	</g>
</g>
</svg>
